<svg id="Layer_1" data-name="Layer 1" xmlns="http://www.w3.org/2000/svg" width="209.999" height="75.229" viewBox="0 0 209.999 75.229">
  <path id="Path_87" data-name="Path 87" d="M234.176,22.032l-.374-.287c1.08-.647-.41-2.305,1.5-2.639-.9-.826-1.689-1.576-2.5-2.3a3.024,3.024,0,0,1-.886-3.791,5.02,5.02,0,0,0,.14-4.276c-.323-.707.058-1.134.726-1.024a11.3,11.3,0,0,1,2.686.824c.969.431,1.837,1.078,2.8,1.5,3.015,1.339,6.063,2.6,9.076,3.944a5.133,5.133,0,0,1,1.6,1.1A26.806,26.806,0,0,0,259.031,21.9c.336.127.691.216,1.034.319a43.528,43.528,0,0,1-7.843-6.253,7.719,7.719,0,0,1,4.932,1.7,18.839,18.839,0,0,0,2.1,1.563c1.227.781,2.542,1.432,3.732,2.258,2.318,1.6,4.578,3.344,7.35,4.1a10.4,10.4,0,0,1,5.168,3.323,37.227,37.227,0,0,0,8.354,7.476,12.9,12.9,0,0,0,2.761,1.238c1.43.459,2.9.817,4.37,1.145a23.378,23.378,0,0,0,2.435.276c-1.758-1.208-3.352-2.372-5.01-3.42a26.863,26.863,0,0,0-3.725-2.057,17.269,17.269,0,0,1-5.486-3.558c-1.386-1.391-2.742-2.816-4.02-4.313a12.766,12.766,0,0,0-5.444-4.1,24.991,24.991,0,0,1-7.748-3.946,34.227,34.227,0,0,0-6.687-3.752c-2.311-1.106-4.728-1.958-7.083-2.943-.744-.308-1.423-.783-2.185-1.018-2.771-.847-5.569-1.615-8.35-2.439a3.922,3.922,0,0,1-1.255-.617c-3.583-2.751-5.831-2.913-9.716-.645a16.067,16.067,0,0,1-1.451.774c-.6.27-1.3.8-1.816.664-1.244-.321-2.078.364-3.068.737a1.325,1.325,0,0,1-1.034-.1C217.175,6.86,215.009,5.4,212.9,3.867A32.771,32.771,0,0,0,205.148.031a1.76,1.76,0,0,0-1.156.149c-2.136.949-4.281,1.889-6.386,2.922-1.992.975-3.952,1.995-5.853,3.116-2.435,1.438-4.782,3.032-7.208,4.5-3.333,2.01-6.7,3.968-10.061,5.936-3.27,1.915-6.576,3.778-9.815,5.744-1.481.9-2.818,2.02-4.256,2.989-1.955,1.313-4.06,2.424-5.393,4.474a4.293,4.293,0,0,1-1.609,1.272c-1.833.977-3.714,1.87-5.567,2.8-.454.233-.872.533-1.3.809-1.507.962-3.022,1.919-4.522,2.9-.547.356-1.065.757-1.807,1.294,3.44.252,6.4-.574,9.4-1.1a8.265,8.265,0,0,0,3.515-1.66c2.213-1.656,4.5-3.245,6.862-4.705,1.255-.776,1.749-.367,1.612,1.054a7.134,7.134,0,0,0-.122.96c.02.431-.027,1.078.234,1.268a1.616,1.616,0,0,0,1.328-.069,30.355,30.355,0,0,0,3.856-2.3c3.524-2.6,6.944-5.343,10.482-7.935,2.657-1.941,3.332-1.751,5.465.725a61.865,61.865,0,0,0,4.314,4.468,1.876,1.876,0,0,0,3.164-.362,5.993,5.993,0,0,0,.856-1.846,8.451,8.451,0,0,0-.487-5.688,1.289,1.289,0,0,1-.06-1.035c1.815-2.256,3.684-4.468,5.627-6.8.593,2.1,1.146,4.05,1.7,6,.365-.168.456-.25.474-.347a3.471,3.471,0,0,0,.073-.748c-.134-2.467.914-4.617,1.974-6.745.221-.431.763-.709,1.107-1.093.27-.3.69-.668.664-.979a3.83,3.83,0,0,1,1.641-3.342A13.9,13.9,0,0,0,206,4.227a15.2,15.2,0,0,0,1.094-2.1c.338.274.613.494.885.718,3.387,2.8,6.209,6.238,10.248,8.3a4.614,4.614,0,0,1,2.313,3.159c.31,1.281.733,2.538,1.087,3.81a13.826,13.826,0,0,1,.775,3.12,4.107,4.107,0,0,0,1.623,3.148c.527.449,1.036.916,1.55,1.371a15.482,15.482,0,0,1,4.691,6.3,5.906,5.906,0,0,0,.5.873l.177-.058V28.54a4.739,4.739,0,0,1,1.122.966,30.906,30.906,0,0,0,3.1,2.726c2.235,1.587,3.612,3.86,5.264,5.917a9.6,9.6,0,0,0,.982.932c-.467-2.57-1.094-4.96-1.665-7.347a2.847,2.847,0,0,0-1.461-1.9,36.181,36.181,0,0,1-3.1-2.07,26.794,26.794,0,0,1-2.174-1.829,1.385,1.385,0,0,1-.124-1.967c.463-.681,1.122-.367,1.673-.071a13.672,13.672,0,0,1,1.463.964c.565.4,1.107.828,1.671,1.244l.259-.231-2.508-4.621Z" transform="translate(-109.172 0.019)" fill="#faf8f5"/>
  <path id="Path_88" data-name="Path 88" d="M234.184,22.046l1.269-.781,2.517,4.621-.259.231c-.558-.416-1.107-.841-1.671-1.244a13.726,13.726,0,0,0-1.463-.964c-.551-.3-1.21-.61-1.673.071a1.384,1.384,0,0,0,.124,1.967,26.71,26.71,0,0,0,2.174,1.829,35.954,35.954,0,0,0,3.1,2.07,2.851,2.851,0,0,1,1.461,1.9c.571,2.394,1.2,4.776,1.665,7.347a9.758,9.758,0,0,1-.974-.927c-1.651-2.057-3.028-4.33-5.264-5.917a34.8,34.8,0,0,1-3.1-2.726,4.739,4.739,0,0,0-1.122-.966V32.89l-.177.058a5.951,5.951,0,0,1-.5-.873,15.407,15.407,0,0,0-4.691-6.3c-.522-.455-1.032-.923-1.549-1.371a4.106,4.106,0,0,1-1.623-3.148,13.825,13.825,0,0,0-.774-3.12c-.354-1.272-.777-2.529-1.087-3.81a4.616,4.616,0,0,0-2.313-3.159c-4.038-2.059-6.863-5.5-10.247-8.3-.27-.216-.545-.444-.886-.718a16.737,16.737,0,0,1-1.093,2.1,13.882,13.882,0,0,1-2.11,2.424,3.831,3.831,0,0,0-1.64,3.342c.021.311-.4.681-.665.979-.352.384-.9.658-1.106,1.093-1.06,2.128-2.107,4.278-1.975,6.745a3.381,3.381,0,0,1-.073.748c-.017.1-.108.179-.474.347-.554-1.951-1.106-3.9-1.7-6-1.968,2.325-3.836,4.537-5.642,6.792-.168.216-.073.727.06,1.035a8.451,8.451,0,0,1,.487,5.688,6.005,6.005,0,0,1-.857,1.846,1.881,1.881,0,0,1-3.164.362,61.548,61.548,0,0,1-4.314-4.468c-2.134-2.475-2.81-2.672-5.466-.725-3.542,2.588-6.957,5.33-10.481,7.935a30.527,30.527,0,0,1-3.856,2.3,1.559,1.559,0,0,1-1.329.069c-.279-.2-.221-.826-.234-1.268a7.214,7.214,0,0,1,.122-.96c.137-1.421-.356-1.831-1.612-1.054-2.359,1.46-4.648,3.049-6.862,4.705a8.175,8.175,0,0,1-3.515,1.66c-3,.53-5.961,1.356-9.4,1.1.742-.53,1.26-.932,1.807-1.294,1.5-.977,3.015-1.941,4.522-2.9.431-.276.85-.576,1.3-.809,1.853-.944,3.735-1.837,5.567-2.8a4.3,4.3,0,0,0,1.609-1.272c1.328-2.051,3.438-3.161,5.393-4.474,1.438-.968,2.776-2.089,4.257-2.989,3.237-1.971,6.543-3.834,9.8-5.749,3.36-1.969,6.727-3.927,10.061-5.936,2.436-1.456,4.771-3.058,7.217-4.5,1.9-1.121,3.87-2.141,5.853-3.116,2.105-1.033,4.25-1.973,6.393-2.918a1.748,1.748,0,0,1,1.156-.149,32.764,32.764,0,0,1,7.748,3.836c2.114,1.527,4.279,2.989,6.45,4.44a1.328,1.328,0,0,0,1.035.1c.989-.373,1.824-1.059,3.068-.737.511.134,1.217-.395,1.815-.664a16.13,16.13,0,0,0,1.448-.772c3.887-2.266,6.134-2.1,9.718.664a3.925,3.925,0,0,0,1.255.617c2.78.824,5.578,1.591,8.35,2.439.761.235,1.441.709,2.185,1.018,2.362.985,4.789,1.842,7.084,2.943a34.6,34.6,0,0,1,6.692,3.748,24.978,24.978,0,0,0,7.748,3.946,12.724,12.724,0,0,1,5.443,4.1c1.277,1.486,2.634,2.911,4.02,4.313a17.278,17.278,0,0,0,5.485,3.558,26.9,26.9,0,0,1,3.726,2.057c1.658,1.057,3.251,2.212,5.009,3.42a22.994,22.994,0,0,1-2.435-.276c-1.47-.328-2.939-.686-4.37-1.145a12.893,12.893,0,0,1-2.76-1.238,37.059,37.059,0,0,1-8.354-7.476,10.4,10.4,0,0,0-5.169-3.323c-2.771-.757-5.031-2.5-7.35-4.1-1.19-.826-2.506-1.477-3.731-2.258a18.85,18.85,0,0,1-2.1-1.563,7.718,7.718,0,0,0-4.932-1.712,43.879,43.879,0,0,0,7.844,6.253c-.344-.106-.7-.192-1.035-.319a27.127,27.127,0,0,1-10.09-6.825A5.137,5.137,0,0,0,247.369,14c-3.017-1.339-6.065-2.6-9.076-3.944-.968-.431-1.835-1.078-2.805-1.5a11.284,11.284,0,0,0-2.685-.824c-.664-.11-1.049.317-.726,1.024a5.008,5.008,0,0,1-.139,4.276,3.026,3.026,0,0,0,.885,3.791c.813.725,1.6,1.475,2.5,2.3-1.912.334-.422,2-1.5,2.639Z" transform="translate(-109.18 0.005)" fill="#faf8f5"/>
  <path id="Path_89" data-name="Path 89" d="M6.274,198.4c2.435,0,5.977-.136,8.237,2.514a8.427,8.427,0,0,1,1.771,5.578v2.424a7.808,7.808,0,0,1-1.771,5.073,6.654,6.654,0,0,1-2.539,1.646L17.24,230.4H12.259L7.611,216.6H4.788v13.8H0v-32ZM4.788,212.477H7.526a4.17,4.17,0,0,0,2.969-1.05,3.213,3.213,0,0,0,1.005-2.88V206.26a4.126,4.126,0,0,0-1.107-2.926,4.022,4.022,0,0,0-3.115-.824H4.788Z" transform="translate(0 -155.61)" fill="#faf8f5"/>
  <path id="Path_90" data-name="Path 90" d="M122.471,230.4l-1.583-6.86h-6.13l-1.585,6.86H108.39l7.327-32h4.206l7.327,32Zm-4.744-23.085-2.491,12.16h5.079Z" transform="translate(-84.396 -155.614)" fill="#faf8f5"/>
  <path id="Path_91" data-name="Path 91" d="M238.65,198.4v32h-4.79v-32Z" transform="translate(-182.092 -155.614)" fill="#faf8f5"/>
  <path id="Path_92" data-name="Path 92" d="M311.34,198.4l8,20.117V198.4h4.8v32h-4.8l-8-20.114V230.4h-4.79v-32Z" transform="translate(-238.689 -155.614)" fill="#faf8f5"/>
  <path id="Path_93" data-name="Path 93" d="M438.027,216.916V230.4H433.24V216.779L426.2,198.4h5.27l4.166,12.71h.287l4.068-12.71h5.076Z" transform="translate(-331.853 -155.614)" fill="#faf8f5"/>
  <path id="Path_94" data-name="Path 94" d="M558.135,198.4c2.014,0,4.885.092,6.994,1.921,2.434,2.158,2.584,5.532,2.584,6.9v14.126c0,2.195-.238,4.528-2.156,6.538A9.06,9.06,0,0,1,558.8,230.4H551.67v-32Zm-1.676,27.515h2.148a4.307,4.307,0,0,0,3.209-1.1,5.439,5.439,0,0,0,1.105-3.748V206.9a4.512,4.512,0,0,0-.908-2.972c-.91-1.051-1.914-1.051-3.113-1.051h-2.434Z" transform="translate(-429.548 -155.614)" fill="#faf8f5"/>
  <path id="Path_95" data-name="Path 95" d="M671.531,230.394l-1.582-6.859H663.82l-1.582,6.857h-4.789l7.326-32h4.207l7.326,32Zm-4.744-23.085-2.49,12.16h5.078Z" transform="translate(-511.91 -155.606)" fill="#faf8f5"/>
  <path id="Path_96" data-name="Path 96" d="M768.578,216.916V230.4h-4.789V216.779L756.75,198.4h5.268l4.166,12.71h.287l4.07-12.71h5.078Z" transform="translate(-589.229 -155.614)" fill="#faf8f5"/>
  <path id="Path_97" data-name="Path 97" d="M884.711,204.771a4.621,4.621,0,0,0-.812-2.926,3.094,3.094,0,0,0-2.539-1.053,3.294,3.294,0,0,0-2.348.863,4.384,4.384,0,0,0-1,3.234,6.539,6.539,0,0,0,.766,3.338,4.437,4.437,0,0,0,2.2,1.417l2.922,1a8.466,8.466,0,0,1,4.359,2.743c1.293,1.692,1.434,3.522,1.434,5.534v1.095c0,3.248-.906,5.717-2.3,7.088a8.88,8.88,0,0,1-6.227,2.1c-3.4,0-5.6-1.327-6.7-2.788a9.546,9.546,0,0,1-1.535-5.391v-1.04h4.789v.863a4.7,4.7,0,0,0,.766,2.836,3.368,3.368,0,0,0,2.637,1.049,3.629,3.629,0,0,0,3.016-1.142,5.025,5.025,0,0,0,.766-3.154v-1.188a5.819,5.819,0,0,0-.766-3.29,4.951,4.951,0,0,0-2.3-1.419l-3.5-1.188a6.641,6.641,0,0,1-4.41-3.564,11.151,11.151,0,0,1-.715-4.664v-.9a7.955,7.955,0,0,1,2.488-5.944,8.184,8.184,0,0,1,5.8-1.966c4.789,0,8,2.972,8,8.276v1.05h-4.789Z" transform="translate(-679.692 -153.983)" fill="#faf8f5"/>
</svg>
